<svg id="Camada_1" data-name="Camada 1" xmlns="http://www.w3.org/2000/svg" viewBox="0 0 207.19 221.62"><defs><style>.cls-1{fill:#fa991d;}</style></defs><path class="cls-1" d="M684.48,145.4c.77.71,1.83.66,2.74,1,4.39,1.74,7.52,4.8,8.18,9.47,2,14.14.24,27.7-7.46,40-2.94,4.72-7.07,8.12-12.77,9a14.9,14.9,0,0,1-14-5.07c-5.43-6-7.69-13.38-8.26-21.24-.64-8.87,1.39-17.19,7-24.28,4.63-5.88,10.94-8.83,18.41-9.28.33,0,.72.16.94-.27Z" transform="translate(-580.06 -144.82)"/><path class="cls-1" d="M737.22,329.76a33.42,33.42,0,0,1-13.26,24,64.65,64.65,0,0,1-23.51,11.54c-11.86,3.2-21.66-.74-29.89-9.34-6.43-6.73-10.68-14.78-13.94-23.41-.89-2.34-.85-2.32-2.73-.61-8.1,7.36-17.17,12.88-28.29,14.17-10.49,1.23-20.22-1.24-28.39-7.82-5.81-4.67-9.82-11.09-13-17.86-7.78-16.5-4.16-31.22,7.22-44.62,7.85-9.23,17.56-16.19,28-22.23,22.07-12.82,45.79-21.55,70.3-28.32,1.16-.32,1.83-.23,2.44.91C706.87,253.68,722,281,734.22,309.7A39.72,39.72,0,0,1,737.22,329.76Zm-79.34-9.21A43.87,43.87,0,0,0,667,336.38c6.41,7,14.17,10.65,23.73,8.63a53.57,53.57,0,0,0,16.1-6.67c13.75-8.13,17.77-21.28,13.18-35.84-1.2-3.84-2.73-7.58-4.26-11.31-8.21-20-17.44-39.51-26.67-59-.58-1.23-.88-2-2.56-1.45-20.65,6.27-40.66,14-59,25.52C619,261.55,611.08,267.7,605,275.87c-5,6.67-7.83,14-7.09,22.5.63,7.18,3.86,13.3,8,19.08a33.55,33.55,0,0,0,22.28,14.27c9.33,1.62,17.4-1.74,24.75-7.23C654.54,323.26,656.14,321.93,657.88,320.55Z" transform="translate(-580.06 -144.82)"/><path class="cls-1" d="M769.2,190.49a52.7,52.7,0,0,1-6.57,20.6c-4.69,8.25-11.86,12.38-21.21,13A23.75,23.75,0,0,1,731,222.88a16.94,16.94,0,0,1-10.2-10.69c-5.67-16.56-1.7-29.41,12.56-40a39.29,39.29,0,0,1,19.41-8,18.72,18.72,0,0,1,5.64.13c4.48.86,7.31,3.57,8.94,7.73C769.67,178,769.88,184.19,769.2,190.49Z" transform="translate(-580.06 -144.82)"/><path class="cls-1" d="M760.69,281A41.41,41.41,0,0,1,745,276.08c-8.35-4.84-8.73-16.1-3.15-22.24,5.88-6.48,21.14-12.34,31.48-7.47a21.93,21.93,0,0,1,9,7.75A28.14,28.14,0,0,1,787,264.77c1.06,5.64-1.05,10.13-6,13s-10.36,3.47-15.9,3.47C763.5,281.21,762,281.07,760.69,281Z" transform="translate(-580.06 -144.82)"/><path class="cls-1" d="M591.32,191.57c.82-7.18,5.48-12.24,11.34-12.69a14.45,14.45,0,0,1,9.57,2.68c10.16,7.23,16.61,16.85,17.9,29.45.63,6.1-2.69,10.55-8.6,12.11A31.63,31.63,0,0,1,611,224.21a15.23,15.23,0,0,1-12.28-7.67c-3.16-5.09-4.72-10.79-6.13-16.53C591.87,197,590.91,194.08,591.32,191.57Z" transform="translate(-580.06 -144.82)"/></svg>